<?xml version="1.0" standalone="no"?>
<!DOCTYPE svg PUBLIC "-//W3C//DTD SVG 20010904//EN"
 "http://www.w3.org/TR/2001/REC-SVG-20010904/DTD/svg10.dtd">
<svg version="1.0" xmlns="http://www.w3.org/2000/svg"
 width="512.000000pt" height="512.000000pt" viewBox="0 0 512.000000 512.000000"
 preserveAspectRatio="xMidYMid meet">

<g transform="translate(0.000000,512.000000) scale(0.100000,-0.100000)"
fill="#000000" stroke="none">
<path d="M4565 4825 c-284 -84 -559 -256 -831 -517 l-101 -98 -334 0 c-184 0
-372 -5 -418 -10 -101 -11 -201 -55 -274 -120 l-47 -42 -40 36 c-56 50 -109
82 -182 108 l-63 23 -810 0 -810 0 -152 -102 -153 -103 -154 0 -155 0 -20 -26
-21 -27 0 -1759 0 -1759 25 -24 24 -25 1139 0 1140 0 6 -35 c12 -60 29 -65
226 -65 197 0 214 5 226 65 l6 35 1140 0 1139 0 24 25 25 24 0 1759 0 1759
-21 27 -20 26 -157 0 c-148 0 -159 1 -185 23 l-28 22 20 85 c61 263 67 494 15
651 -10 31 -23 50 -40 58 -34 15 -46 14 -139 -14z m59 -197 c34 -287 -91 -751
-332 -1231 l-87 -172 -115 -93 c-205 -167 -230 -190 -230 -220 0 -44 24 -68
89 -86 l61 -17 -167 -222 c-91 -122 -167 -223 -169 -225 -1 -2 -89 -37 -196
-79 -106 -41 -203 -79 -215 -84 -21 -8 -19 1 28 134 221 628 546 1274 881
1750 123 174 138 198 138 219 0 48 -47 84 -95 72 -27 -7 -103 -105 -232 -299
-337 -507 -604 -1048 -835 -1690 l-26 -70 -27 90 c-15 50 -51 167 -80 261
l-52 171 111 257 110 256 47 -46 c39 -38 51 -45 79 -42 55 5 66 32 101 258
l33 205 52 75 c122 176 344 414 507 546 171 137 349 242 517 305 41 15 80 28
86 29 6 0 14 -24 18 -52z m-2294 -605 c25 -12 69 -43 98 -69 l52 -46 0 -1456
0 -1455 -22 20 c-39 35 -103 71 -170 95 l-63 23 -732 3 -733 3 0 1455 0 1454
763 -2 762 -3 45 -22z m1156 18 c-3 -4 -44 -59 -91 -122 -47 -63 -90 -130 -95
-149 -5 -19 -16 -87 -26 -150 -9 -63 -19 -117 -21 -119 -2 -3 -16 7 -31 21
-63 59 -107 44 -150 -51 -17 -36 -40 -89 -52 -117 l-22 -52 -70 -4 c-62 -3
-73 -7 -94 -31 -29 -34 -30 -56 -3 -91 15 -19 30 -26 54 -26 19 0 36 -3 38 -7
2 -5 -22 -69 -54 -143 -32 -74 -59 -144 -59 -156 0 -16 56 -213 94 -330 5 -18
2 -22 -23 -27 -59 -12 -87 -71 -54 -115 17 -23 29 -27 75 -30 l55 -3 36 -123
c21 -68 37 -126 37 -129 0 -2 -39 -5 -87 -6 -81 -1 -90 -4 -110 -27 -31 -34
-29 -60 6 -95 27 -26 36 -29 96 -29 51 0 66 -3 62 -13 -3 -7 -15 -49 -27 -92
-41 -151 -38 -145 -76 -145 -50 0 -88 -40 -80 -83 3 -18 16 -40 27 -49 20 -17
66 -18 649 -18 346 0 636 3 645 6 45 18 48 111 5 134 -12 6 -217 10 -534 10
-284 0 -516 3 -516 8 0 4 15 59 33 122 l32 115 487 5 c485 5 488 5 509 27 27
27 29 75 4 103 -18 19 -30 20 -389 20 -203 0 -366 4 -361 8 6 5 78 35 160 67
205 79 205 79 245 135 l35 50 141 0 c120 0 145 3 162 18 38 31 30 101 -13 120
-14 7 -60 12 -101 12 l-74 0 125 167 c99 132 125 173 125 198 0 37 -21 60 -74
78 l-37 13 112 89 c61 49 120 102 130 119 19 30 19 12 19 -991 l0 -1023 -687
0 c-408 0 -716 -4 -758 -10 -78 -12 -176 -54 -236 -101 l-39 -31 0 1456 0
1456 67 54 c101 85 100 84 466 85 175 1 316 -3 313 -8z m-2876 -1503 l0 -1443
-72 -72 c-40 -40 -76 -73 -80 -73 -5 0 -8 660 -8 1468 l0 1467 73 47 c39 26
75 48 80 48 4 0 7 -649 7 -1442z m4055 -1587 c-3 -3 -39 28 -80 69 l-75 74 0
1198 0 1198 65 165 c36 90 65 166 65 169 0 3 6 17 13 33 10 23 12 -255 15
-1436 1 -805 0 -1467 -3 -1470z m-4365 1349 c0 -1114 3 -1556 11 -1573 6 -14
22 -30 36 -36 17 -8 307 -11 1003 -11 l980 0 0 -75 0 -75 -1090 0 -1090 0 0
1660 0 1660 75 0 75 0 0 -1550z m4670 -110 l0 -1660 -1090 0 -1090 0 0 75 0
75 980 0 c696 0 986 3 1003 11 14 6 30 22 36 36 8 17 11 459 11 1573 l0 1550
75 0 75 0 0 -1660z m-2689 -1238 c50 -24 129 -92 129 -110 0 -9 -232 -12 -920
-12 -506 0 -920 3 -920 7 0 4 30 38 67 75 l68 68 765 -2 765 -3 46 -23z m2201
-39 c38 -37 68 -71 68 -75 0 -5 -414 -8 -920 -8 -506 0 -920 3 -920 6 0 17 25
46 67 76 98 71 47 67 883 67 l754 1 68 -67z m-1842 -358 l0 -125 -80 0 -80 0
0 125 0 125 80 0 80 0 0 -125z"/>
<path d="M1175 3675 c-14 -13 -25 -36 -25 -50 0 -14 11 -37 25 -50 l24 -25
426 0 426 0 24 25 c14 13 25 36 25 50 0 14 -11 37 -25 50 l-24 25 -426 0 -426
0 -24 -25z"/>
<path d="M995 3291 c-50 -21 -65 -86 -29 -122 20 -19 36 -20 660 -19 l639 0
23 25 c28 33 28 57 -2 92 l-24 28 -624 2 c-342 1 -632 -2 -643 -6z"/>
<path d="M977 2879 c-45 -26 -39 -106 9 -128 27 -12 1227 -16 1272 -5 23 7 52
50 52 79 0 9 -11 27 -25 40 l-24 25 -633 0 c-424 -1 -639 -4 -651 -11z"/>
<path d="M982 2478 c-40 -20 -46 -90 -10 -120 19 -17 65 -18 650 -18 424 0
636 3 649 11 48 25 44 105 -7 128 -34 15 -1249 14 -1282 -1z"/>
<path d="M965 2060 c-25 -28 -23 -76 4 -103 l22 -22 630 -3 630 -2 30 29 c34
35 37 59 8 95 l-20 26 -643 0 c-632 0 -643 0 -661 -20z"/>
<path d="M977 1668 c-40 -31 -36 -115 8 -132 21 -8 1258 -8 1280 0 18 7 45 55
45 79 0 9 -11 27 -25 40 l-24 25 -634 0 c-491 0 -637 -3 -650 -12z"/>
</g>
</svg>
