<?xml version="1.0" standalone="no"?>
<!DOCTYPE svg PUBLIC "-//W3C//DTD SVG 20010904//EN"
 "http://www.w3.org/TR/2001/REC-SVG-20010904/DTD/svg10.dtd">
<svg version="1.0" xmlns="http://www.w3.org/2000/svg"
 width="300.000000pt" height="132.000000pt" viewBox="0 0 300.000000 132.000000"
 preserveAspectRatio="xMidYMid meet">
<metadata>
Created by potrace 1.10, written by Peter Selinger 2001-2011
</metadata>
<g transform="translate(0.000000,132.000000) scale(0.050000,-0.050000)"
fill="#ff0000" stroke="none">
<path d="M334 2600 c12 -44 -54 -79 -172 -91 -38 -3 -76 -18 -85 -33 -9 -14
-17 -17 -17 -6 -1 11 -14 3 -31 -19 -40 -53 -39 -228 1 -244 17 -6 30 -24 30
-40 0 -16 8 -24 19 -18 10 6 24 -8 32 -32 12 -38 16 -39 32 -11 19 34 108 12
141 -35 8 -11 20 -13 28 -6 8 8 25 -1 39 -20 18 -24 32 -28 52 -13 62 48 145
24 94 -27 -17 -17 -17 -30 -1 -50 35 -42 31 -628 -5 -703 -13 -28 -11 -35 6
-24 15 10 23 -5 23 -46 0 -33 -9 -65 -20 -72 -12 -7 -15 -21 -9 -31 6 -11 3
-19 -6 -19 -29 0 -23 -67 9 -103 26 -30 24 -35 -15 -47 -31 -10 -37 -20 -21
-36 34 -34 26 -82 -18 -109 -22 -14 -39 -37 -38 -50 1 -19 4 -19 12 1 7 18 17
20 35 5 31 -26 21 -148 -19 -226 -15 -31 -19 -50 -9 -44 28 17 23 -28 -6 -63
-69 -85 -98 -108 -119 -96 -14 9 -17 5 -8 -9 8 -13 25 -18 36 -10 13 8 16 4 8
-10 -8 -13 -26 -23 -41 -23 -30 0 -54 -45 -65 -125 -5 -33 1 -55 15 -55 13 0
18 -13 12 -30 -10 -26 61 -30 566 -30 l579 0 59 55 c33 30 66 80 74 110 7 30
24 55 36 56 13 0 -4 15 -37 33 -80 43 -105 81 -94 142 7 35 3 46 -14 35 -44
-27 -72 25 -72 132 0 91 5 106 35 101 21 -3 35 7 35 26 0 19 -9 27 -23 18 -17
-10 -20 4 -10 51 7 36 13 73 13 82 0 9 23 12 50 7 34 -6 55 2 63 22 6 16 24
30 40 30 16 0 25 -7 20 -15 -5 -8 37 -17 94 -19 65 -2 89 2 64 12 -28 11 -32
19 -13 31 13 8 30 10 36 3 7 -6 24 -2 39 11 20 16 27 15 28 -6 0 -19 8 -17 27
8 14 19 50 37 79 39 29 3 53 12 53 20 0 32 59 15 79 -22 15 -29 13 -41 -11
-50 -17 -6 -24 -22 -17 -34 9 -14 20 -15 33 -2 26 26 138 -31 150 -76 10 -37
207 -47 261 -13 14 8 35 9 48 1 14 -9 18 -5 9 9 -9 14 -1 23 18 23 18 0 27 -9
20 -20 -7 -11 -3 -20 8 -20 11 0 25 9 32 20 18 30 192 19 204 -13 6 -15 18
-27 28 -27 9 0 12 12 6 27 -12 32 42 93 82 93 15 0 34 10 42 23 9 14 5 18 -9
9 -15 -9 -18 -3 -10 18 7 18 25 27 41 21 16 -6 23 -2 15 10 -7 11 2 42 19 69
25 38 26 53 7 74 -35 38 -40 76 -13 108 18 22 16 28 -7 28 -23 0 -29 23 -26
101 2 56 -4 106 -13 111 -9 6 -7 28 5 49 16 31 14 39 -12 39 -59 0 -17 50 48
56 46 5 63 -2 63 -25 0 -17 -12 -31 -27 -31 -14 0 -26 -13 -26 -28 0 -16 10
-24 24 -19 31 12 52 -70 29 -114 -14 -25 -8 -44 21 -70 21 -19 39 -52 39 -72
0 -20 13 -37 30 -37 16 0 35 -23 42 -50 7 -27 20 -50 30 -50 10 0 18 -15 18
-33 0 -19 6 -28 13 -21 23 23 65 -27 53 -62 -11 -32 -9 -32 16 0 31 37 68 13
68 -44 0 -23 19 -28 75 -23 58 5 75 -1 75 -25 0 -25 22 -32 97 -32 53 0 102
-6 110 -13 20 -20 113 -27 113 -8 0 9 13 22 29 28 19 7 25 1 19 -16 -6 -15 -1
-33 11 -40 13 -8 21 7 21 38 0 28 9 51 20 51 11 0 20 -11 20 -25 1 -17 5 -18
15 -3 19 28 85 28 85 0 0 -13 7 -11 17 3 22 35 165 106 186 93 9 -6 18 1 19
16 2 31 56 -82 57 -120 1 -15 -10 -21 -24 -14 -14 7 -8 -1 14 -19 36 -29 23
-42 -34 -33 -28 4 -15 -59 15 -71 23 -9 25 -20 8 -51 -12 -23 -22 -89 -21
-148 1 -88 -8 -117 -49 -162 -28 -30 -48 -43 -45 -28 4 15 -4 31 -18 36 -15 6
-25 -7 -25 -32 0 -23 -8 -42 -18 -42 -9 0 -28 -27 -42 -60 -14 -33 -37 -60
-52 -60 -16 0 -29 -11 -30 -25 0 -14 -4 -41 -8 -60 -4 -20 6 -35 22 -35 15 0
28 -13 28 -30 0 -26 72 -30 528 -30 l528 0 13 52 c7 29 26 66 42 82 39 39 36
61 -11 86 -23 13 -40 42 -40 71 0 27 -8 49 -18 49 -10 0 -16 40 -15 88 2 48 9
84 17 80 7 -5 8 23 2 63 -9 55 -5 71 16 67 41 -6 100 23 87 44 -17 28 17 21
65 -12 38 -27 46 -27 75 2 18 17 45 27 60 21 15 -6 39 2 52 18 32 38 87 38 72
0 -6 -17 -2 -35 9 -42 11 -7 26 6 32 28 5 23 27 47 48 54 21 6 38 21 38 32 0
10 8 15 17 9 9 -6 47 16 84 48 36 33 71 55 76 50 6 -6 22 16 36 50 14 33 39
60 56 60 27 0 31 73 31 615 l0 615 -70 59 c-38 32 -70 68 -70 79 0 12 -27 43
-60 69 -55 43 -87 102 -40 73 11 -7 20 -2 20 10 0 15 -20 19 -57 11 -42 -10
-61 -5 -70 18 -6 17 -26 31 -45 31 -20 0 -28 11 -21 29 9 25 -69 29 -546 30
l-556 2 -13 -45 c-9 -35 -16 -40 -30 -19 -14 23 -19 23 -28 0 -9 -22 -14 -22
-31 2 -16 23 -23 19 -33 -23 -12 -47 -19 -50 -72 -36 -32 10 -58 12 -58 6 0
-6 -12 -1 -26 11 -14 12 -46 16 -70 10 -32 -9 -44 -3 -44 21 0 17 -9 32 -20
32 -11 0 -20 -9 -20 -20 0 -11 -22 -20 -50 -20 -27 0 -50 -10 -50 -22 0 -14
-19 -18 -50 -10 -29 7 -50 4 -50 -8 0 -36 -40 -21 -41 15 -1 27 -5 25 -19 -9
-15 -38 -26 -41 -78 -27 -50 15 -65 10 -95 -31 -41 -54 -102 -63 -120 -18 -6
17 -27 30 -47 30 -19 0 -46 13 -59 29 -13 16 -35 25 -47 20 -13 -4 -69 -12
-125 -17 -55 -5 -113 -12 -130 -16 -16 -3 -27 5 -24 19 7 34 -28 32 -41 -3
-11 -28 -174 -55 -174 -29 0 17 -138 9 -180 -10 -46 -20 -196 -1 -234 30 -20
16 -28 17 -20 3 8 -13 6 -29 -6 -36 -11 -7 -20 -2 -20 10 0 12 -11 16 -23 8
-17 -10 -19 -3 -9 23 8 21 8 32 0 24 -23 -23 -92 26 -80 58 7 16 3 24 -8 17
-11 -7 -20 -3 -20 9 0 29 -1737 28 -1772 -1 -17 -13 -29 -13 -37 1 -26 41
-108 25 -97 -19z m1705 -96 c64 -32 135 -88 172 -136 48 -64 70 -78 101 -67
180 66 515 69 524 4 l7 -44 83 44 c91 47 488 68 481 25 -2 -11 -10 -56 -18
-99 l-15 -79 106 84 c351 280 887 215 1043 -126 36 -79 36 -79 36 -20 1 92
-35 200 -79 240 -39 35 -56 110 -25 110 8 0 146 15 305 33 576 65 747 36 948
-160 391 -382 339 -1175 -92 -1395 -107 -55 -348 -82 -513 -58 -73 11 -140 19
-148 20 -8 0 -15 -147 -15 -328 l0 -327 74 -72 c93 -90 77 -107 -57 -62 -104
34 -539 32 -702 -4 -89 -19 -64 24 50 89 238 136 251 182 254 904 l1 389 -67
-99 c-237 -350 -852 -460 -1101 -198 -121 128 -158 238 -171 500 -12 258 -22
287 -124 339 -82 43 -167 36 -231 -19 l-56 -48 -6 -357 c-7 -401 1 -472 59
-530 59 -59 38 -66 -301 -96 -343 -31 -400 -23 -315 45 73 59 113 272 111 604
l-1 240 -34 -120 c-132 -461 -394 -649 -947 -683 l-216 -13 0 -344 c0 -395 9
-419 170 -481 157 -60 110 -89 -147 -90 -95 -1 -312 -13 -483 -28 -335 -29
-405 -20 -308 40 251 153 237 117 266 689 66 1279 61 1351 -85 1399 -46 15
-474 81 -527 81 -3 0 -6 8 -6 17 0 10 83 24 185 32 102 8 266 27 365 42 169
26 820 132 1040 169 147 25 286 6 409 -56z m998 -830 c-16 -29 -26 -32 -48
-13 -35 29 -37 63 -6 94 35 35 80 -32 54 -81z"/>
<path d="M1520 2486 c-459 -78 -1022 -167 -1078 -169 -49 -2 -56 -5 -22 -10
328 -48 371 -92 352 -367 -6 -104 -21 -446 -33 -760 -32 -888 -43 -944 -201
-1025 l-68 -35 70 9 c179 23 286 30 495 33 237 3 263 11 165 55 -107 47 -120
101 -120 508 l0 366 245 24 c634 61 960 347 964 845 3 406 -293 607 -769 526z
m231 -156 c174 -108 219 -197 219 -437 0 -482 -262 -733 -764 -733 l-126 0 1
285 c0 276 31 894 45 907 67 68 504 52 625 -22z"/>
<path d="M1260 2302 c-61 -17 -74 -147 -78 -740 l-2 -368 129 12 c361 34 594
297 598 674 3 333 -287 522 -647 422z m235 -237 c14 -3 25 9 25 25 0 36 23 39
56 6 13 -13 24 -17 24 -9 0 8 23 -8 50 -35 31 -31 50 -73 50 -110 0 -33 9 -65
20 -72 12 -8 8 -35 -11 -72 -17 -33 -25 -78 -18 -100 8 -26 -3 -55 -34 -88
-26 -26 -47 -60 -47 -74 0 -14 -13 -26 -30 -26 -16 0 -45 -21 -63 -47 -23 -34
-35 -39 -43 -20 -9 22 -15 21 -32 -3 -20 -27 -24 -27 -42 0 -28 42 -25 60 10
60 17 0 30 14 30 30 0 17 -16 30 -35 30 -30 1 -31 3 -5 20 20 14 23 25 9 35
-44 30 -48 84 -10 104 43 23 42 67 -1 117 -19 23 -25 52 -16 84 8 28 15 39 16
25 1 -14 12 -25 25 -25 14 0 11 13 -8 35 -23 25 -27 45 -13 70 11 20 15 43 9
53 -6 10 0 22 14 27 14 5 30 -1 35 -13 6 -12 21 -24 35 -27z"/>
<path d="M4920 2428 c-49 -4 -165 -13 -257 -20 l-166 -12 42 -45 c76 -80 81
-156 82 -1052 0 -984 2 -969 -141 -1065 l-95 -64 257 0 c249 0 257 1 243 40
-13 36 -9 732 4 745 3 3 53 -4 111 -17 591 -127 990 242 902 834 -77 519 -357
706 -982 656z m331 -115 c212 -99 329 -315 344 -633 25 -526 -261 -816 -642
-653 l-78 33 10 555 c10 598 21 665 112 715 75 41 139 36 254 -17z"/>
<path d="M5017 2242 l-47 -38 -6 -549 c-7 -628 -16 -598 173 -610 478 -31 537
1006 69 1207 -87 38 -133 35 -189 -10z m173 -202 c-7 -11 -3 -20 7 -20 11 0
26 -18 33 -40 7 -24 23 -35 36 -27 16 8 16 4 -1 -14 -14 -15 -25 -36 -25 -48
0 -12 8 -9 18 7 14 21 21 18 31 -15 8 -24 24 -43 36 -43 13 0 5 -14 -16 -30
-38 -29 -38 -30 -1 -17 31 11 36 7 26 -19 -7 -18 -3 -39 9 -46 14 -9 12 -19
-6 -30 -15 -10 -17 -18 -5 -18 30 0 20 -177 -12 -206 -20 -19 -22 -18 -10 4
10 18 8 23 -4 16 -12 -7 -18 -41 -14 -75 5 -36 0 -56 -12 -49 -11 7 -20 1 -20
-14 0 -14 -23 -27 -50 -29 -28 -1 -50 7 -50 19 0 11 -15 37 -33 57 -25 28 -27
43 -10 63 12 15 16 34 8 42 -8 9 1 27 21 42 34 25 34 28 3 45 -25 14 -29 31
-17 67 9 26 15 53 14 58 -2 6 -9 50 -16 100 -7 49 -17 96 -22 103 -5 8 5 23
23 32 17 10 35 35 39 56 9 51 8 49 21 49 6 0 6 -9 -1 -20z"/>
<path d="M3685 2298 c-378 -146 -532 -602 -327 -968 99 -176 186 -220 439
-220 371 0 654 197 724 505 20 89 -12 82 -42 -9 -88 -265 -468 -419 -730 -294
-245 116 -247 714 -3 896 145 107 370 33 446 -145 56 -133 54 -135 -217 -165
-229 -26 -245 -31 -251 -73 -8 -56 34 -58 405 -15 432 50 398 38 386 142 -36
320 -449 492 -830 346z"/>
<path d="M2530 2290 c-88 -14 -163 -26 -166 -27 -4 -2 8 -23 25 -47 70 -100
34 -1115 -43 -1201 -36 -41 -35 -41 32 -28 38 7 143 19 235 26 92 7 167 17
167 21 0 4 -16 37 -35 72 -39 73 -43 727 -4 846 61 188 303 234 443 83 70 -75
68 -78 84 113 l14 157 -121 -13 c-152 -17 -234 -45 -315 -105 -85 -63 -87 -61
-73 43 14 104 27 101 -243 60z"/>
<path d="M3860 2178 c-199 -81 -305 -423 -202 -650 133 -292 605 -242 775 83
43 83 68 109 102 109 48 0 55 14 27 58 -15 23 -48 24 -205 5 -391 -49 -529
-63 -611 -63 l-86 0 0 78 c0 108 33 126 272 149 239 24 256 43 143 163 -73 77
-141 98 -215 68z m250 -615 c0 -12 -8 -22 -18 -21 -10 1 -26 -11 -37 -25 -14
-20 -16 -17 -7 10 7 20 12 45 12 56 0 11 11 17 25 12 14 -5 25 -19 25 -32z"/>
</g>
</svg>
