<svg width="500" height="500" viewBox="0 0 500 500" fill="none" xmlns="http://www.w3.org/2000/svg">
<path fill-rule="evenodd" clip-rule="evenodd" d="M250 90.4999C166.881 90.4999 99.5 157.881 99.5 241C99.5 324.119 166.881 391.5 250 391.5C333.119 391.5 400.5 324.119 400.5 241C400.5 157.881 333.119 90.4999 250 90.4999ZM84.5 241C84.5 149.597 158.597 75.4999 250 75.4999C297.369 75.4999 351.533 88.3274 400.5 165C438.5 224.5 433.029 231.5 432.5 233C431.971 234.5 431.5 237 423 241C419.5 242.647 414 242.5 413.5 242.5C248 242.5 341.403 406.5 250 406.5C158.597 406.5 84.5 332.403 84.5 241Z" fill="#20493C"/>
<path d="M267.337 157.266V335H230.838V157.266H267.337ZM322.024 157.266V185.952H177.005V157.266H322.024Z" fill="#20493C"/>
</svg>