<?xml version="1.0" encoding="UTF-8"?>
<svg version="1.1" xmlns="http://www.w3.org/2000/svg" width="500" height="500">
<path d="M0 0 C165 0 330 0 500 0 C500 165 500 330 500 500 C335 500 170 500 0 500 C0 335 0 170 0 0 Z " fill="#FEFEFE" transform="translate(0,0)"/>
<path d="M0 0 C1.07636719 -0.01224609 2.15273437 -0.02449219 3.26171875 -0.03710938 C9.66687437 -0.04881185 15.30622133 0.54146428 21.5 2.1875 C21.5 2.5175 21.5 2.8475 21.5 3.1875 C15.56 3.6825 15.56 3.6825 9.5 4.1875 C9.83 4.1875 10.16 4.1875 10.5 4.1875 C14.5 4.1875 18.5 4.1875 22.5 4.1875 C22.5 3.8575 22.5 3.5275 22.5 3.1875 C33.18015041 4.33180183 39.21405184 6.25802856 47.5 13.1875 C50.99955506 15.5205367 53.93740544 15.76963313 58 16.1875 C65.09459459 16.91722973 65.09459459 16.91722973 68.5 19.1875 C69.15163361 21.74224897 69.44677339 24.26083442 69.77734375 26.875 C70.26534658 29.34370104 70.26534658 29.34370104 72.45703125 30.34375 C73.13121094 30.6221875 73.80539062 30.900625 74.5 31.1875 C78.61183056 37.06154366 78.08834239 43.51036008 77 50.3125 C76.835 50.93125 76.67 51.55 76.5 52.1875 C77.49 51.1975 77.49 51.1975 78.5 50.1875 C78.5 51.5075 78.5 52.8275 78.5 54.1875 C79.82 54.1875 81.14 54.1875 82.5 54.1875 C81.34826645 56.65550047 80.45216435 58.23533565 78.5 60.1875 C76.37109375 60.41796875 76.37109375 60.41796875 73.9375 60.375 C73.13183594 60.36855469 72.32617188 60.36210937 71.49609375 60.35546875 C69.5 60.1875 69.5 60.1875 68.5 59.1875 C66.78247485 59.22611511 65.06662988 59.3411149 63.35473633 59.48535156 C62.24931992 59.57594849 61.1439035 59.66654541 60.00498962 59.7598877 C58.79291336 59.86490601 57.5808371 59.96992432 56.33203125 60.078125 C55.08253189 60.18249878 53.83303253 60.28687256 52.54566956 60.39440918 C49.16658652 60.67810717 45.78799924 60.96677938 42.40953827 61.25773621 C39.6181472 61.4970218 36.8263575 61.73145956 34.03456116 61.96596146 C19.96541567 63.14901062 5.9105572 64.40154473 -8.125 65.9375 C-42.04118901 69.50902891 -76.45297143 68.31072719 -110.5 68.1875 C-110.005 67.1975 -110.005 67.1975 -109.5 66.1875 C-106.79400158 65.71152634 -104.16404596 65.34656371 -101.4375 65.0625 C-100.67888672 64.97613281 -99.92027344 64.88976562 -99.13867188 64.80078125 C-97.26003014 64.58810483 -95.38011364 64.38674541 -93.5 64.1875 C-98.87021009 59.51713112 -102.41050838 57.67643046 -109.5 57.1875 C-111.5 55.1875 -111.5 55.1875 -111.625 52.5625 C-111.58375 51.77875 -111.5425 50.995 -111.5 50.1875 C-106.80043233 50.55344994 -102.39468379 50.90983951 -97.875 52.3125 C-88.244444 54.93013591 -76.02838716 52.26678788 -66.5 50.1875 C-67.50417969 50.331875 -68.50835937 50.47625 -69.54296875 50.625 C-83.51186104 52.5579648 -95.67931123 52.66857303 -109.5 49.1875 C-109.5 48.5275 -109.5 47.8675 -109.5 47.1875 C-110.16 46.8575 -110.82 46.5275 -111.5 46.1875 C-111.5 44.2075 -111.5 42.2275 -111.5 40.1875 C-110.86320312 40.2596875 -110.22640625 40.331875 -109.5703125 40.40625 C-97.24345239 41.5833507 -84.86915484 41.27752296 -72.5 41.1875 C-73.69375244 41.14991577 -73.69375244 41.14991577 -74.91162109 41.11157227 C-78.56620168 40.99453014 -82.22059175 40.87230038 -85.875 40.75 C-87.75251953 40.69102539 -87.75251953 40.69102539 -89.66796875 40.63085938 C-96.6490422 40.39328358 -103.56229936 40.01245273 -110.5 39.1875 C-110.5 38.5275 -110.5 37.8675 -110.5 37.1875 C-109.55125 36.89875 -108.6025 36.61 -107.625 36.3125 C-104.44788422 35.41924891 -104.44788422 35.41924891 -102.5 33.1875 C-99.9540393 32.98787589 -97.51924064 32.90763452 -94.97265625 32.921875 C-94.22793564 32.91996155 -93.48321503 32.9180481 -92.71592712 32.91607666 C-91.13979759 32.91471486 -89.56365685 32.91841097 -87.98754883 32.92675781 C-85.57542666 32.93744274 -83.16405182 32.92687054 -80.75195312 32.9140625 C-79.22135252 32.91538439 -77.69075238 32.9179474 -76.16015625 32.921875 C-75.43820572 32.91782654 -74.71625519 32.91377808 -73.97242737 32.90960693 C-70.26482331 32.94428514 -68.66783652 33.07560899 -65.5 35.1875 C-65.5 35.8475 -65.5 36.5075 -65.5 37.1875 C-53.6259284 37.30692313 -45.02720517 34.48568604 -34.5 29.1875 C-36.27087651 29.31188689 -38.0416953 29.43709503 -39.8125 29.5625 C-41.09125 29.65144531 -42.37 29.74039063 -43.6875 29.83203125 C-47.31522533 30.09193498 -50.93856916 30.39104991 -54.5625 30.69921875 C-66.11182957 31.65641602 -77.59434302 32.37413413 -89.1875 32.375 C-90.20755127 32.3757251 -91.22760254 32.3764502 -92.27856445 32.37719727 C-97.77140984 32.33633266 -103.06584913 31.99327563 -108.5 31.1875 C-106.98397692 26.94263537 -104.33910839 25.36058022 -100.5 23.1875 C-95.30069112 21.26183004 -90.95912545 20.99595174 -85.5 21.1875 C-87.12366466 24.43482932 -90.25387839 24.88905136 -93.5 26.1875 C-92.38625 25.775 -91.2725 25.3625 -90.125 24.9375 C-75.89312955 20.25275013 -61.38073255 18.3680174 -46.5 17.1875 C-49.47 16.8575 -52.44 16.5275 -55.5 16.1875 C-51.45142042 12.64598322 -47.27063396 10.37380976 -42.4375 8.125 C-41.68597656 7.77429443 -40.93445313 7.42358887 -40.16015625 7.06225586 C-27.07840227 1.12551704 -14.2009059 0.00850354 0 0 Z " fill="#070707" transform="translate(236.5,185.8125)"/>
<path d="M0 0 C1.07636719 -0.01224609 2.15273437 -0.02449219 3.26171875 -0.03710938 C9.66687437 -0.04881185 15.30622133 0.54146428 21.5 2.1875 C21.5 2.5175 21.5 2.8475 21.5 3.1875 C17.54 3.5175 13.58 3.8475 9.5 4.1875 C9.83 4.1875 10.16 4.1875 10.5 4.1875 C14.5 4.1875 18.5 4.1875 22.5 4.1875 C22.5 3.8575 22.5 3.5275 22.5 3.1875 C33.78917657 4.39705463 39.85876577 6.5732977 48.5 14.1875 C44.45214754 16.55511181 40.75274007 16.5911956 36.15625 16.84375 C33.55425808 17.00488281 33.55425808 17.00488281 31.77148438 18.19897461 C28.60307001 19.57783421 25.9491365 19.39381849 22.5 19.34765625 C21.80408249 19.34191086 21.10816498 19.33616547 20.39115906 19.33024597 C18.88348589 19.31751139 17.37584309 19.30065869 15.86825562 19.28015137 C11.81465028 19.22854303 7.76091513 19.21953447 3.70703125 19.20703125 C2.86848099 19.20391937 2.02993073 19.2008075 1.16596985 19.19760132 C-7.06267595 19.17296127 -15.28788096 19.22395248 -23.51489258 19.39401245 C-25.02161326 19.42253063 -26.52847883 19.44435114 -28.03540039 19.45877075 C-38.48646922 19.56446332 -47.4983125 21.09671329 -57.5 24.1875 C-59.83071946 24.86366918 -62.16518295 25.5255568 -64.5 26.1875 C-64.5 27.1775 -64.5 28.1675 -64.5 29.1875 C-62.52 29.5175 -60.54 29.8475 -58.5 30.1875 C-58.5 30.5175 -58.5 30.8475 -58.5 31.1875 C-68.52289286 31.95955227 -78.50901247 32.29473635 -88.5625 32.3125 C-89.62009521 32.31701172 -90.67769043 32.32152344 -91.76733398 32.32617188 C-97.44001727 32.31538132 -102.88987994 32.03608959 -108.5 31.1875 C-106.98397692 26.94263537 -104.33910839 25.36058022 -100.5 23.1875 C-95.30069112 21.26183004 -90.95912545 20.99595174 -85.5 21.1875 C-87.12366466 24.43482932 -90.25387839 24.88905136 -93.5 26.1875 C-92.38625 25.775 -91.2725 25.3625 -90.125 24.9375 C-75.89312955 20.25275013 -61.38073255 18.3680174 -46.5 17.1875 C-49.47 16.8575 -52.44 16.5275 -55.5 16.1875 C-51.45142042 12.64598322 -47.27063396 10.37380976 -42.4375 8.125 C-41.68597656 7.77429443 -40.93445313 7.42358887 -40.16015625 7.06225586 C-27.07840227 1.12551704 -14.2009059 0.00850354 0 0 Z " fill="#0D0D0D" transform="translate(236.5,185.8125)"/>
<path d="M0 0 C6.46203324 5.62382079 12.22807805 12.48097246 15 20.6875 C15.125 23.5 15.125 23.5 15 25.6875 C12 24.6875 12 24.6875 10.8125 22.625 C10.4103125 21.6659375 10.4103125 21.6659375 10 20.6875 C10 22.3375 10 23.9875 10 25.6875 C6.8113249 26.33825002 4.16658798 26.5194857 1 25.6875 C-1.92539354 22.71108216 -3.9076348 19.27994714 -6 15.6875 C-18.14569932 -1.5515571 -43.87785783 -8.25765867 -63.45043945 -11.91235352 C-75.96772272 -13.87690654 -88.77855245 -13.61145097 -101.41845703 -13.78930664 C-104.1047218 -13.82880358 -106.79054106 -13.88030155 -109.4765625 -13.93359375 C-110.30354645 -13.9420079 -111.1305304 -13.95042206 -111.98257446 -13.95909119 C-117.77306369 -14.08556369 -117.77306369 -14.08556369 -120 -16.3125 C-86.10660294 -31.13751622 -29.03823112 -22.30646012 0 0 Z " fill="#08C168" transform="translate(370,167.3125)"/>
<path d="M0 0 C3.64581598 -0.0293908 7.29160087 -0.04692874 10.9375 -0.0625 C11.95908203 -0.07087891 12.98066406 -0.07925781 14.03320312 -0.08789062 C25.26712525 -0.12378175 33.61353275 1.25765734 44.0625 5.5625 C45.11888672 5.98724609 46.17527344 6.41199219 47.26367188 6.84960938 C49.84666258 7.8898183 52.42505527 8.94006678 55 10 C55 10.66 55 11.32 55 12 C56.77890625 12.05607422 56.77890625 12.05607422 58.59375 12.11328125 C85.7202916 13.14686106 85.7202916 13.14686106 93 18 C93.61875 18.28875 94.2375 18.5775 94.875 18.875 C97.60595109 20.32079764 99.75155214 21.87308986 102 24 C102.8125 26.75 102.8125 26.75 103 29 C102.34 28.67 101.68 28.34 101 28 C100.67 28.66 100.34 29.32 100 30 C97.26916098 30.13548815 94.54508193 30.23429855 91.8125 30.3125 C91.04357422 30.35439453 90.27464844 30.39628906 89.48242188 30.43945312 C85.09285063 30.53364993 83.53713962 30.44164813 80.01171875 27.54296875 C79.34785156 26.70378906 78.68398438 25.86460937 78 25 C77.67 24.67 77.34 24.34 77 24 C76.67 24.66 76.34 25.32 76 26 C75.52691406 25.52949219 75.05382812 25.05898437 74.56640625 24.57421875 C73.57447266 23.64029297 73.57447266 23.64029297 72.5625 22.6875 C71.92441406 22.07261719 71.28632813 21.45773438 70.62890625 20.82421875 C62.89928523 15.46057385 53.54820158 15.16531759 44.4375 14.3125 C43.14263672 14.18294922 41.84777344 14.05339844 40.51367188 13.91992188 C37.34323621 13.60404821 34.17218845 13.29766185 31 13 C31 12.67 31 12.34 31 12 C29.77023437 11.97421875 28.54046875 11.9484375 27.2734375 11.921875 C25.64059068 11.86556994 24.00777955 11.80822315 22.375 11.75 C21.56675781 11.73582031 20.75851562 11.72164062 19.92578125 11.70703125 C14.47935718 11.4856319 11.35880244 10.53191198 7 7 C6.30132812 6.44957031 5.60265625 5.89914063 4.8828125 5.33203125 C4.30273438 4.83058594 3.72265625 4.32914063 3.125 3.8125 C2.52945312 3.30332031 1.93390625 2.79414063 1.3203125 2.26953125 C0.88460938 1.85058594 0.44890625 1.43164062 0 1 C0 0.67 0 0.34 0 0 Z " fill="#252525" transform="translate(277,189)"/>
<path d="M0 0 C14.20289855 -0.92071611 14.20289855 -0.92071611 18.05859375 1.0546875 C19.06471098 2.06353134 20.04486636 3.09864538 21.00390625 4.15234375 C39.28425307 21.073291 69.13590175 21.23374652 92.34716797 21.53173828 C94.72905095 21.56528593 97.11051638 21.6103215 99.4921875 21.65625 C100.21912811 21.6615271 100.94606873 21.6668042 101.69503784 21.67224121 C106.77408987 21.77408987 106.77408987 21.77408987 109 24 C82.00001085 33.81068308 45.79271097 29.90873225 20 18 C12.25935324 13.95971261 5.57665859 8.76083795 0 2 C0 1.34 0 0.68 0 0 Z " fill="#08C168" transform="translate(132,255)"/>
<path d="M0 0 C11.28917657 1.20955463 17.35876577 3.3857977 26 11 C22.75754945 12.89783243 20.10408848 13.32629089 16.375 13.5625 C12.54278845 13.74338455 12.54278845 13.74338455 9 15 C6.30106819 15.08675538 3.62830769 15.11557897 0.9296875 15.09765625 C-0.26465408 15.09553383 -0.26465408 15.09553383 -1.48312378 15.09336853 C-4.0304538 15.08776345 -6.57769647 15.07521014 -9.125 15.0625 C-10.85025915 15.05748565 -12.57551967 15.05292263 -14.30078125 15.04882812 C-18.53388791 15.03779237 -22.76692914 15.02052436 -27 15 C-27 14.34 -27 13.68 -27 13 C-26.34 13 -25.68 13 -25 13 C-25 12.34 -25 11.68 -25 11 C-24.34 11 -23.68 11 -23 11 C-22.79375 10.443125 -22.5875 9.88625 -22.375 9.3125 C-19.94471007 5.2251942 -16.48614354 2.49538118 -12 1 C-9.93854893 0.931009 -7.87498599 0.91532273 -5.8125 0.9375 C-4.18248047 0.95103516 -4.18248047 0.95103516 -2.51953125 0.96484375 C-1.68808594 0.97644531 -0.85664063 0.98804688 0 1 C0 0.67 0 0.34 0 0 Z " fill="#020202" transform="translate(259,189)"/>
<path d="M0 0 C4.35169313 1.3925418 5.51912453 3.27732075 8.125 7 C9.88081591 12.26744772 9.59903705 16.57788886 7.875 21.75 C6.18243081 24.89334278 5.02407676 26.92923088 2.125 29 C-0.75 29.6875 -0.75 29.6875 -3.875 29 C-6.81957901 27.14625367 -8.41585692 25.15314823 -9.875 22 C-10.77034191 16.14636311 -11.36594639 9.45582018 -8.0625 4.25 C-5.38622448 1.49725947 -3.92751472 0 0 0 Z " fill="#E0E0E0" transform="translate(213.875,219)"/>
<path d="M0 0 C2.27024968 -0.08097324 4.54132075 -0.13917704 6.8125 -0.1875 C8.07707031 -0.22230469 9.34164063 -0.25710937 10.64453125 -0.29296875 C14 0 14 0 15.76171875 1.44921875 C16.17035156 1.96097656 16.57898438 2.47273437 17 3 C20.61010846 4.20336949 23.91072402 4.14330286 27.66796875 4.1328125 C28.42161209 4.13376923 29.17525543 4.13472595 29.95173645 4.13571167 C31.54798465 4.13639205 33.14423563 4.13454764 34.74047852 4.13037109 C37.16103498 4.12505809 39.58140272 4.13030147 42.00195312 4.13671875 C43.55729207 4.13605722 45.1126309 4.1347745 46.66796875 4.1328125 C47.74028999 4.13584885 47.74028999 4.13584885 48.83427429 4.13894653 C54.66717151 4.11231677 60.42756465 3.85747845 66 2 C65.625 4.4375 65.625 4.4375 65 7 C49.16022177 14.91988911 16.97290087 11.1707617 0 8 C0 5.36 0 2.72 0 0 Z " fill="#101010" transform="translate(318,230)"/>
<path d="M0 0 C3.64581598 -0.0293908 7.29160087 -0.04692874 10.9375 -0.0625 C11.95908203 -0.07087891 12.98066406 -0.07925781 14.03320312 -0.08789062 C24.63849113 -0.12177333 32.75138968 0.89475761 42.5625 5.0625 C43.47580078 5.43955078 44.38910156 5.81660156 45.33007812 6.20507812 C47.55787561 7.12652316 49.78074295 8.05821579 52 9 C52 9.33 52 9.66 52 10 C46.36264595 10.22432842 40.72794722 10.38663559 35.0871582 10.49438477 C33.17328587 10.53934312 31.25971734 10.6005363 29.34692383 10.67895508 C11.42650144 11.39464932 11.42650144 11.39464932 4.17578125 5.52734375 C1.66137695 3.04663086 1.66137695 3.04663086 0 1 C0 0.67 0 0.34 0 0 Z " fill="#040404" transform="translate(277,189)"/>
<path d="M0 0 C2.6881249 -0.08164159 5.373723 -0.14079668 8.0625 -0.1875 C8.81466797 -0.21263672 9.56683594 -0.23777344 10.34179688 -0.26367188 C15.67315049 -0.33291023 19.26644955 0.50960976 24 3 C26 5 26 5 27 7 C26.67 7.99 26.34 8.98 26 10 C25.67 9.67 25.34 9.34 25 9 C24.67 9.66 24.34 10.32 24 11 C21.26916098 11.13548815 18.54508193 11.23429855 15.8125 11.3125 C14.65911133 11.3753418 14.65911133 11.3753418 13.48242188 11.43945312 C9.19492655 11.53145946 7.5451612 11.43452768 4.07421875 8.66796875 C0 3.42749529 0 3.42749529 0 0 Z " fill="#0B0B0B" transform="translate(353,208)"/>
<path d="M0 0 C-10.92351701 7.28234467 -20.98112607 10.17843255 -34 9 C-34 8.34 -34 7.68 -34 7 C-37.17787541 5.9407082 -39.42588943 5.88541061 -42.76171875 5.90234375 C-44.43911133 5.90717773 -44.43911133 5.90717773 -46.15039062 5.91210938 C-47.31763672 5.92048828 -48.48488281 5.92886719 -49.6875 5.9375 C-50.86634766 5.94201172 -52.04519531 5.94652344 -53.25976562 5.95117188 C-56.17322789 5.96296727 -59.08658863 5.9794273 -62 6 C-59.0443305 4.02955367 -58.27655454 3.72769702 -54.94677734 3.51342773 C-54.13518158 3.45674423 -53.32358582 3.40006073 -52.48739624 3.34165955 C-51.61241486 3.28949783 -50.73743347 3.23733612 -49.8359375 3.18359375 C-48.92929352 3.12220718 -48.02264954 3.06082062 -47.08853149 2.99757385 C-44.18450432 2.80250352 -41.27986892 2.61956539 -38.375 2.4375 C-35.49175885 2.24948352 -32.60870201 2.05893984 -29.72573853 1.86671448 C-27.9327815 1.74796177 -26.1396355 1.63201613 -24.34628296 1.51939392 C-19.50338061 1.20723939 -14.69419493 0.78063159 -9.87528992 0.20425415 C-6.56904204 -0.15585809 -3.32073123 -0.06037693 0 0 Z " fill="#DFDFDF" transform="translate(205,214)"/>
<path d="M0 0 C3.63535761 0.20196431 4.7994786 0.78322011 7.3125 3.5 C9.42155329 7.87433275 9.38082175 11.23972817 9 16 C8.67 16 8.34 16 8 16 C8 13.69 8 11.38 8 9 C7.01 9.66 6.02 10.32 5 11 C5.33 12.98 5.66 14.96 6 17 C6.66 17 7.32 17 8 17 C7.67 18.32 7.34 19.64 7 21 C5.5 19.625 5.5 19.625 4 18 C4 17.34 4 16.68 4 16 C3.34 16 2.68 16 2 16 C1.67 17.98 1.34 19.96 1 22 C2.32 22.33 3.64 22.66 5 23 C3.25 23.75 3.25 23.75 1 24 C-1.23343204 22.14944202 -2.70191542 20.59616917 -4 18 C-4.17471848 15.90051399 -4.26717852 13.79375592 -4.3125 11.6875 C-4.34988281 10.55699219 -4.38726562 9.42648438 -4.42578125 8.26171875 C-3.92085048 4.39367111 -2.65195786 2.7879557 0 0 Z " fill="#ECECEC" transform="translate(293,218)"/>
<path d="M0 0 C2.25 2.5 2.25 2.5 4 5 C-6.67585731 5.82527186 -17.36239823 6.22249648 -28.0625 6.5625 C-29.07195679 6.59571854 -29.07195679 6.59571854 -30.10180664 6.62960815 C-39.73952147 6.94355692 -49.35850922 7.05450102 -59 7 C-59 6.67 -59 6.34 -59 6 C-58.07662842 5.88406494 -57.15325684 5.76812988 -56.2019043 5.64868164 C-52.7743426 5.21686454 -49.34714832 4.78232924 -45.92016602 4.34594727 C-44.43723119 4.15768184 -42.95415849 3.97049912 -41.47094727 3.78442383 C-39.33833182 3.5166867 -37.20624347 3.24505241 -35.07421875 2.97265625 C-33.79119873 2.81031494 -32.50817871 2.64797363 -31.1862793 2.48071289 C-27.98834779 2.09120661 -27.98834779 2.09120661 -25 1 C-23.42128756 0.85298448 -21.8379366 0.75283516 -20.25390625 0.68359375 C-19.33416016 0.64169922 -18.41441406 0.59980469 -17.46679688 0.55664062 C-16.50837891 0.51732422 -15.54996094 0.47800781 -14.5625 0.4375 C-13.13067383 0.37272461 -13.13067383 0.37272461 -11.66992188 0.30664062 C-7.77329248 0.13485081 -3.90146782 0 0 0 Z " fill="#DADADA" transform="translate(280,239)"/>
<path d="M0 0 C1.2375 0.04125 2.475 0.0825 3.75 0.125 C2.41666667 0.79166667 1.08333333 1.45833333 -0.25 2.125 C-0.8422084 2.47228149 -1.43441681 2.81956299 -2.04457092 3.17736816 C-4.75720886 4.34293821 -6.83641626 4.39006576 -9.78686523 4.41210938 C-10.90000595 4.42552368 -12.01314667 4.43893799 -13.16001892 4.45275879 C-14.36404861 4.45803589 -15.56807831 4.46331299 -16.80859375 4.46875 C-18.06269547 4.4833728 -19.31679718 4.49799561 -20.60890198 4.51306152 C-24.63507211 4.55959044 -28.66118946 4.59399126 -32.6875 4.625 C-53.9293375 4.71890327 -53.9293375 4.71890327 -75.12109375 6.01953125 C-76.33870644 6.13204224 -76.33870644 6.13204224 -77.58091736 6.24682617 C-84.07726345 6.93553122 -90.18770449 8.47309092 -96.4140625 10.41796875 C-99.25 11.125 -99.25 11.125 -102.25 10.125 C-100.27422092 9.32491635 -98.29416153 8.53540079 -96.3125 7.75 C-95.21035156 7.30914062 -94.10820312 6.86828125 -92.97265625 6.4140625 C-83.1621944 3.01694559 -73.66267114 2.70394498 -63.375 2.5 C-61.74876971 2.46059898 -60.12254906 2.42079775 -58.49633789 2.38061523 C-50.0553085 2.18585443 -41.61896953 2.10034809 -33.17578125 2.13671875 C-32.37186951 2.13976013 -31.56795776 2.14280151 -30.73968506 2.14593506 C-26.88285531 2.16333606 -23.02689874 2.19532293 -19.17041016 2.24951172 C-17.77897265 2.26154441 -16.3875339 2.27343383 -14.99609375 2.28515625 C-13.18129517 2.31041382 -13.18129517 2.31041382 -11.32983398 2.33618164 C-7.09770669 2.04598821 -4.29125489 -0.14304183 0 0 Z " fill="#FDFDFD" transform="translate(274.25,201.875)"/>
<path d="M0 0 C-2.77462879 1.52454276 -5.10536667 2.32872166 -8.23828125 2.74609375 C-9.45789551 2.91661255 -9.45789551 2.91661255 -10.70214844 3.09057617 C-11.56356445 3.20506104 -12.42498047 3.3195459 -13.3125 3.4375 C-19.68114538 4.32742406 -25.96063245 5.34475486 -32.25 6.6875 C-37.31468375 7.74793542 -41.83909514 8.31597377 -47 8 C-47.66 6.35 -48.32 4.7 -49 3 C-44.11169122 2.5655179 -39.22279455 2.13863179 -34.33325195 1.71826172 C-32.67585099 1.57475407 -31.01861698 1.42930258 -29.36157227 1.28173828 C-19.54228197 0.40878051 -9.86659079 -0.2384141 0 0 Z " fill="#E8E8E8" transform="translate(270,212)"/>
<path d="M0 0 C2 1 2 1 3.125 3.375 C4.9448888 10.91453932 4.90563246 17.55322141 1.16796875 24.44140625 C0 26 0 26 -3 28 C-5.33199388 28.07905064 -7.66832622 28.08798769 -10 28 C-9.401875 27.13375 -8.80375 26.2675 -8.1875 25.375 C-6.70479912 23.16928597 -5.55766167 21.09831034 -4.375 18.6875 C-3 16 -3 16 -1 15 C-1.01160156 14.41992188 -1.02320313 13.83984375 -1.03515625 13.2421875 C-1.08762174 8.7001754 -0.91751063 4.47286431 0 0 Z " fill="#F2F2F2" transform="translate(307,216)"/>
<path d="M0 0 C3.39125935 3.1651754 5.77589909 5.66403291 6.23046875 10.40234375 C6.08597285 18.92760181 6.08597285 18.92760181 5 23 C5.66 22.34 6.32 21.68 7 21 C7 22.32 7 23.64 7 25 C8.32 25 9.64 25 11 25 C9.84826645 27.46800047 8.95216435 29.04783565 7 31 C4.87109375 31.23046875 4.87109375 31.23046875 2.4375 31.1875 C1.63183594 31.18105469 0.82617188 31.17460937 -0.00390625 31.16796875 C-2 31 -2 31 -3 30 C-4.66617115 29.95936168 -6.33388095 29.957279 -8 30 C-7.4225 29.7525 -6.845 29.505 -6.25 29.25 C-1.74495684 26.74719824 0.3901666 23.8295002 2 19 C2.67338635 12.37506665 1.914241 6.34092332 0 0 Z " fill="#171717" transform="translate(308,215)"/>
<path d="M0 0 C-3.64426471 2.42950981 -6.81728573 2.69736129 -11.0625 3.125 C-11.87436768 3.20991699 -12.68623535 3.29483398 -13.52270508 3.38232422 C-24.98219135 4.44143434 -36.50545439 4.17495503 -48 4 C-47.01 3.34 -46.02 2.68 -45 2 C-48.3 1.67 -51.6 1.34 -55 1 C-55 0.67 -55 0.34 -55 0 C-53.76435303 0.00523682 -52.52870605 0.01047363 -51.25561523 0.01586914 C-46.65047944 0.03403407 -42.04534678 0.0454739 -37.44018555 0.05493164 C-35.45092231 0.05994564 -33.46166273 0.06675849 -31.47241211 0.07543945 C-28.60529678 0.08763384 -25.73823038 0.09325777 -22.87109375 0.09765625 C-21.98852402 0.10281754 -21.10595428 0.10797882 -20.19664001 0.11329651 C-13.33910323 0.11391287 -6.73881285 -1.4792516 0 0 Z " fill="#C8F1DD" transform="translate(250,291)"/>
<path d="M0 0 C1.38077722 0.00063163 2.76165774 0.02313659 4.1418457 0.06347656 C4.87007034 0.06913635 5.59829498 0.07479614 6.34858704 0.08062744 C8.67227194 0.10300128 10.99440902 0.15319488 13.31762695 0.20410156 C14.89377654 0.22416547 16.46995032 0.24241644 18.04614258 0.25878906 C21.90806619 0.30286873 25.76883425 0.37189931 29.63012695 0.45410156 C29.30012695 1.44410156 28.97012695 2.43410156 28.63012695 3.45410156 C16.95459589 4.08250117 5.32603884 4.63101452 -6.36987305 4.45410156 C-4.61900644 1.097548 -3.8314578 0.51630164 0 0 Z " fill="#F0F0F0" transform="translate(164.369873046875,244.5458984375)"/>
<path d="M0 0 C7.26 0 14.52 0 22 0 C18.0739185 3.9260815 15.60536244 5.28687814 10.0625 5.3125 C5.9489347 5.23350982 3.21166931 4.78344673 0 2 C0 1.34 0 0.68 0 0 Z " fill="#161616" transform="translate(349,241)"/>
<path d="M0 0 C3.24788441 1.29915377 3.99860774 2.91819483 5.5 6 C4.51 6.33 3.52 6.66 2.5 7 C2.17 7.66 1.84 8.32 1.5 9 C-1.78414305 9.95067299 -3.19693408 10.10102197 -6.5 9 C-5.90268456 3.62416107 -5.90268456 3.62416107 -4.25 1.0625 C-2.5 0 -2.5 0 0 0 Z " fill="#858585" transform="translate(295.5,218)"/>
<path d="M0 0 C0 0.33 0 0.66 0 1 C-0.5576001 1.03963867 -1.1152002 1.07927734 -1.68969727 1.12011719 C-12.53718398 1.92685374 -22.75886831 3.04278116 -33.1640625 6.29296875 C-36 7 -36 7 -39 6 C-24.85877946 0.27357066 -15.04993399 -1.27863963 0 0 Z " fill="#C8C8C8" transform="translate(211,206)"/>
<path d="M0 0 C7.88264059 0.75794621 7.88264059 0.75794621 11 4 C11 4.99 11 5.98 11 7 C7.75 7.75 7.75 7.75 4 8 C1.5625 6.3125 1.5625 6.3125 0 4 C0 2.68 0 1.36 0 0 Z " fill="#0A0A0A" transform="translate(338,208)"/>
<path d="M0 0 C0 0.66 0 1.32 0 2 C-14.01408056 2.21126755 -28.0002519 1.57359761 -42 1 C-42 0.67 -42 0.34 -42 0 C-36.50091272 -0.16760643 -31.00168215 -0.32816705 -25.50219727 -0.48217773 C-23.63104709 -0.53557425 -21.75995098 -0.59090179 -19.88891602 -0.64819336 C-17.2008022 -0.73016978 -14.51257095 -0.80521854 -11.82421875 -0.87890625 C-10.98662521 -0.90594131 -10.14903168 -0.93297638 -9.28605652 -0.96083069 C-5.9091632 -1.04776959 -3.23102004 -1.07700668 0 0 Z " fill="#888888" transform="translate(332,199)"/>
<path d="M0 0 C1.68359375 1.5546875 1.68359375 1.5546875 3 3 C2.39671875 2.97679687 1.7934375 2.95359375 1.171875 2.9296875 C0.37265625 2.91164062 -0.4265625 2.89359375 -1.25 2.875 C-2.43335938 2.84019531 -2.43335938 2.84019531 -3.640625 2.8046875 C-6.25482266 3.02109459 -7.80262233 3.58358879 -10 5 C-11.10636395 7.39068734 -11.10636395 7.39068734 -12 10 C-12.95824253 11.36365283 -13.94721175 12.70794169 -15 14 C-14.43456084 8.06288879 -12.245081 4.31991703 -8.125 0.0625 C-5.06226741 -1.4688663 -3.22735437 -0.9613396 0 0 Z " fill="#C7C7C7" transform="translate(297,209)"/>
<path d="M0 0 C6.52307692 0.61538462 6.52307692 0.61538462 8.9375 2.5625 C9.288125 3.036875 9.63875 3.51125 10 4 C9.67 4.99 9.34 5.98 9 7 C3.54545455 7.36363636 3.54545455 7.36363636 1.125 5.75 C0 4 0 4 0 0 Z " fill="#0A0A0A" transform="translate(326,208)"/>
<path d="M0 0 C2.475 0.495 2.475 0.495 5 1 C5 3.97 5 6.94 5 10 C6.32 10.33 7.64 10.66 9 11 C7.25 11.75 7.25 11.75 5 12 C2.76656796 10.14944202 1.29808458 8.59616917 0 6 C-0.039992 4.00039988 -0.04346799 1.99952758 0 0 Z " fill="#C4C4C4" transform="translate(289,230)"/>
<path d="M0 0 C7.03051093 3.19426332 12.3156261 8.99814594 17 15 C16.01 15.33 15.02 15.66 14 16 C12.03909808 13.89817699 10.08121556 11.79367717 8.125 9.6875 C7.56941406 9.09259766 7.01382812 8.49769531 6.44140625 7.88476562 C5.90644531 7.30791016 5.37148438 6.73105469 4.8203125 6.13671875 C4.32805176 5.60780029 3.83579102 5.07888184 3.32861328 4.53393555 C2 3 2 3 0 0 Z " fill="#17C471" transform="translate(344,177)"/>
<path d="M0 0 C0.33 1.32 0.66 2.64 1 4 C2.32 4 3.64 4 5 4 C3.125 7.875 3.125 7.875 2 9 C-0.67058851 9.14115161 -3.32432238 9.04247107 -6 9 C-5.67 8.34 -5.34 7.68 -5 7 C-4.34 7 -3.68 7 -3 7 C-2.690625 6.21625 -2.38125 5.4325 -2.0625 4.625 C-1 2 -1 2 0 0 Z " fill="#0E0E0E" transform="translate(314,236)"/>
<path d="M0 0 C3.84375 1.671875 3.84375 1.671875 5.25 4.625 C5.4975 5.40875 5.745 6.1925 6 7 C3.525 8.485 3.525 8.485 1 10 C0 9 0 9 -0.09765625 6.93359375 C-0.08605469 6.10988281 -0.07445312 5.28617188 -0.0625 4.4375 C-0.05347656 3.61121094 -0.04445312 2.78492188 -0.03515625 1.93359375 C-0.02355469 1.29550781 -0.01195312 0.65742188 0 0 Z " fill="#2D2D2D" transform="translate(214,221)"/>
<path d="M0 0 C0.66 0 1.32 0 2 0 C2 2.97 2 5.94 2 9 C0.35 8.67 -1.3 8.34 -3 8 C-3.33 7.01 -3.66 6.02 -4 5 C-2.1875 2.3125 -2.1875 2.3125 0 0 Z " fill="#1B1B1B" transform="translate(210,221)"/>
<path d="M0 0 C1.9375 0.6875 1.9375 0.6875 4 2 C4.75 4.625 4.75 4.625 5 7 C2.69 7 0.38 7 -2 7 C-1.125 2.25 -1.125 2.25 0 0 Z " fill="#0B0B0B" transform="translate(212,239)"/>
<path d="M0 0 C0.1953125 6.0546875 0.1953125 6.0546875 0 8 C-0.66 8.66 -1.32 9.32 -2 10 C-5.05059524 5.60714286 -5.05059524 5.60714286 -4.8125 2.75 C-3.67433137 0.29855987 -2.65058539 0 0 0 Z " fill="#0A0A0A" transform="translate(221,232)"/>
<path d="M0 0 C2 0 2 0 4.125 2 C4.74375 2.66 5.3625 3.32 6 4 C5.34 5.65 4.68 7.3 4 9 C2.35 8.01 0.7 7.02 -1 6 C-0.67 4.02 -0.34 2.04 0 0 Z " fill="#2A2A2A" transform="translate(295,234)"/>
<path d="M0 0 C2.475 0.99 2.475 0.99 5 2 C4.67 3.98 4.34 5.96 4 8 C3.01 8.33 2.02 8.66 1 9 C0.67 6.03 0.34 3.06 0 0 Z " fill="#080808" transform="translate(205,232)"/>
<path d="M0 0 C0.66 0 1.32 0 2 0 C2 2.31 2 4.62 2 7 C2.66 7.33 3.32 7.66 4 8 C3.01 9.485 3.01 9.485 2 11 C2 10.01 2 9.02 2 8 C1.34 8 0.68 8 0 8 C-2 5 -2 5 -1.6875 2.875 C-1 1 -1 1 0 0 Z " fill="#323232" transform="translate(299,227)"/>
<path d="M0 0 C0 0.66 0 1.32 0 2 C-0.99 2.495 -0.99 2.495 -2 3 C0.97 3.495 0.97 3.495 4 4 C4 4.33 4 4.66 4 5 C2.52093108 5.02689216 1.04172517 5.04634621 -0.4375 5.0625 C-1.67306641 5.07990234 -1.67306641 5.07990234 -2.93359375 5.09765625 C-5 5 -5 5 -6 4 C-7.66617115 3.95936168 -9.33388095 3.957279 -11 4 C-10.1028125 3.566875 -10.1028125 3.566875 -9.1875 3.125 C-3.11111111 0 -3.11111111 0 0 0 Z " fill="#777777" transform="translate(311,241)"/>
<path d="M0 0 C1.70363822 0.22622081 3.41328701 0.40888473 5.125 0.5625 C6.03507812 0.64628906 6.94515625 0.73007813 7.8828125 0.81640625 C8.58148438 0.87699219 9.28015625 0.93757812 10 1 C10 1.33 10 1.66 10 2 C3.73 2 -2.54 2 -9 2 C-3.42857143 -1.71428571 -3.42857143 -1.71428571 0 0 Z " fill="#636363" transform="translate(287,201)"/>
<path d="M0 0 C2.97 0.99 5.94 1.98 9 3 C9.33 4.65 9.66 6.3 10 8 C9.278125 7.360625 8.55625 6.72125 7.8125 6.0625 C5.01808816 4.01326465 3.38336726 3.38667054 0 3 C0 2.01 0 1.02 0 0 Z " fill="#B9B9B9" transform="translate(338,205)"/>
<path d="M0 0 C2.9375 0.75 2.9375 0.75 6 2 C6.875 4.125 6.875 4.125 7 6 C6.34 6 5.68 6 5 6 C5 6.66 5 7.32 5 8 C2.46268636 6.73134318 2.21353154 5.50290879 1 3 C0.34 2.34 -0.32 1.68 -1 1 C-0.67 0.67 -0.34 0.34 0 0 Z " fill="#989898" transform="translate(332,207)"/>
<path d="M0 0 C0 0.66 0 1.32 0 2 C-3.3 2 -6.6 2 -10 2 C-10 1.34 -10 0.68 -10 0 C-3.375 -1.125 -3.375 -1.125 0 0 Z " fill="#717171" transform="translate(332,199)"/>
<path d="M0 0 C0.99 0 1.98 0 3 0 C3 2.31 3 4.62 3 7 C2.34 6.34 1.68 5.68 1 5 C0.01 5.99 -0.98 6.98 -2 8 C-1.34 5.36 -0.68 2.72 0 0 Z " fill="#B9B9B9" transform="translate(313,233)"/>
<path d="M0 0 C1.98 0.99 1.98 0.99 4 2 C3.34 3.65 2.68 5.3 2 7 C1.34 7 0.68 7 0 7 C0 4.69 0 2.38 0 0 Z " fill="#222222" transform="translate(295,220)"/>
<path d="M0 0 C-1.33333333 0.66666667 -2.66666667 1.33333333 -4 2 C-4.680625 2.391875 -5.36125 2.78375 -6.0625 3.1875 C-8 4 -8 4 -11 3 C-8.21756596 -1.17365106 -4.53441502 -0.22300402 0 0 Z " fill="#D5D5D5" transform="translate(278,202)"/>
<path d="M0 0 C0.6875 1.8125 0.6875 1.8125 1 4 C-0.4375 5.75 -0.4375 5.75 -2 7 C-2.66 5.68 -3.32 4.36 -4 3 C-3.34 3 -2.68 3 -2 3 C-2 2.34 -2 1.68 -2 1 C-1.34 0.67 -0.68 0.34 0 0 Z " fill="#F6F6F6" transform="translate(210,239)"/>
<path d="M0 0 C1.32 0.33 2.64 0.66 4 1 C3.34 2.98 2.68 4.96 2 7 C0 5 0 5 -0.125 2.375 C-0.08375 1.59125 -0.0425 0.8075 0 0 Z " fill="#161616" transform="translate(290,230)"/>
</svg>
